# xmcd
#
# Track frame offsets: 
#        150
#        4747
#        35206
#        68401
#        101327
#        132921
#        175503
#        214848
#
# Disc length: 3491 seconds
#
# Revision: 0
# Processed by: cddbd v1.5.2PL0 Copyright (c) Steve Scherf et al.
# Submitted via: ExactAudioCopyFreeDBPlugin 1.0
#
DISCID=620da108
DTITLE=Encoffination - III- Hear Me, O' Death
DYEAR=1900
DGENRE=
TTITLE0=Opus Thanatologia
TTITLE1=Charnel Bowels of a Putrescent Earth
TTITLE2=Cemeteries of Purgation
TTITLE3=Crowned Icons
TTITLE4=Rotting Immemorial
TTITLE5=From His Holy Cup Drink - Come Death
TTITLE6=Pale Voices
TTITLE7=Mould of Abandonment
EXTD=
EXTT0=
EXTT1=
EXTT2=
EXTT3=
EXTT4=
EXTT5=
EXTT6=
EXTT7=
PLAYORDER=
